<svg xmlns="http://www.w3.org/2000/svg" viewBox="0 0 1024 1024" role="img" aria-label="Daily reminder app icon">
  <defs>
    <linearGradient id="bg" x1="160" y1="92" x2="854" y2="932" gradientUnits="userSpaceOnUse">
      <stop offset="0" stop-color="#151a22"/>
      <stop offset="0.46" stop-color="#090b10"/>
      <stop offset="1" stop-color="#030405"/>
    </linearGradient>
    <radialGradient id="air" cx="360" cy="232" r="620" gradientUnits="userSpaceOnUse">
      <stop offset="0" stop-color="#ffffff" stop-opacity="0.13"/>
      <stop offset="0.42" stop-color="#bfc7cd" stop-opacity="0.045"/>
      <stop offset="1" stop-color="#000000" stop-opacity="0"/>
    </radialGradient>
    <filter id="soft-shadow" x="-20%" y="-20%" width="140%" height="140%">
      <feDropShadow dx="0" dy="22" stdDeviation="26" flood-color="#000000" flood-opacity="0.36"/>
    </filter>
  </defs>

  <rect width="1024" height="1024" rx="226" fill="url(#bg)"/>
  <rect width="1024" height="1024" rx="226" fill="url(#air)"/>

  <g filter="url(#soft-shadow)" fill="none" stroke-linecap="round" stroke-linejoin="round">
    <path
      d="M512 275
         C638 275 740 377 740 503
         C740 629 638 731 512 731
         C386 731 284 629 284 503
         C284 377 386 275 512 275Z"
      stroke="#e4e7e8"
      stroke-width="34"
      opacity="0.9"
    />
    <path
      d="M366 524
         C420 574 484 599 512 599
         C540 599 604 574 658 524"
      stroke="#aeb6bb"
      stroke-width="28"
      opacity="0.72"
    />
    <path
      d="M512 342
         C555 395 576 445 576 492
         C576 542 547 579 512 599
         C477 579 448 542 448 492
         C448 445 469 395 512 342Z"
      stroke="#d7dcdf"
      stroke-width="24"
      opacity="0.86"
    />
  </g>

  <circle cx="512" cy="506" r="18" fill="#f0f2f2" opacity="0.9"/>
</svg>
